<svg width="60" height="60" viewBox="0 0 60 60" fill="none" xmlns="http://www.w3.org/2000/svg">
<path d="M56.8025 27.0092L45.0253 18.4954C44.7015 18.2611 44.2735 18.2283 43.9175 18.4101C43.5616 18.5921 43.3376 18.9581 43.3376 19.3578V25.7891L33.2482 18.4954C32.9244 18.2611 32.4965 18.2283 32.1406 18.4101C31.7845 18.5921 31.5607 18.9581 31.5607 19.3578V25.7891L21.4712 18.4954C21.1473 18.2611 20.7194 18.2283 20.3633 18.4101C20.0075 18.5921 19.7834 18.9581 19.7834 19.3578V26.8073H17.5842L16.1849 6.51448C16.1462 5.95641 15.6824 5.52339 15.1231 5.52339H9.5452C8.98586 5.52339 8.52219 5.95631 8.48345 6.51448L7.08402 26.8074H3.82055C3.23279 26.8074 2.75635 27.2838 2.75635 27.8716V53.4124C2.75635 54.0001 3.23279 54.4766 3.82055 54.4766H56.1792C56.7669 54.4766 57.2434 54.0001 57.2434 53.4124V27.8716C57.2434 27.5299 57.0794 27.2091 56.8025 27.0092ZM9.36439 24.6789H11.6354C12.2229 24.6789 12.6996 24.2023 12.6996 23.6147C12.6996 23.0269 12.2229 22.5505 11.6354 22.5505H9.51115L10.5385 7.6519H14.1298L15.4507 26.8073H9.21764L9.36439 24.6789ZM19.7833 31.0643H13.8569C13.2694 31.0643 12.7927 31.5409 12.7927 32.1285C12.7927 32.7162 13.2694 33.1927 13.8569 33.1927H19.7833V35.321H13.8569C13.2694 35.321 12.7927 35.7976 12.7927 36.3852C12.7927 36.973 13.2694 37.4494 13.8569 37.4494H19.7833V39.5778H16.9393C16.3517 39.5778 15.8751 40.0544 15.8751 40.642C15.8751 41.2298 16.3517 41.7062 16.9393 41.7062H19.7833V43.8345H13.8569C13.2694 43.8345 12.7927 44.311 12.7927 44.8987C12.7927 45.4863 13.2694 45.9629 13.8569 45.9629H19.7833V48.0911H13.8569C13.2694 48.0911 12.7927 48.5676 12.7927 49.1553C12.7927 49.743 13.2694 50.2195 13.8569 50.2195H19.7833V52.3481H4.88475V28.9357H8.07341C8.07469 28.9357 8.07607 28.9359 8.07735 28.9359H16.5907C16.5916 28.936 16.5924 28.936 16.5929 28.9359C16.5944 28.9359 16.5955 28.9357 16.597 28.9357H19.7833V31.0643ZM55.115 52.3481H21.9117V27.8715V21.4402L32.0013 28.7339C32.3252 28.9682 32.7531 29.0012 33.1092 28.8191C33.465 28.6372 33.689 28.2712 33.689 27.8715V21.4402L43.7784 28.7338C44.1022 28.9682 44.5302 29.0009 44.886 28.8191C45.2421 28.6372 45.4659 28.2712 45.4659 27.8715V21.4402L55.115 28.4153V52.3481Z" fill="#E3010F"/>
<path d="M13.613 41.2294H13.6381C14.2259 41.2294 14.7023 40.7529 14.7023 40.1652C14.7023 39.5775 14.2259 39.101 13.6381 39.101H13.613C13.0255 39.101 12.5488 39.5775 12.5488 40.1652C12.5488 40.7528 13.0254 41.2294 13.613 41.2294Z" fill="#E3010F"/>
<path d="M34.0126 34.8441H29.7556C29.1678 34.8441 28.6914 35.3207 28.6914 35.9083V40.1649C28.6914 40.7526 29.1678 41.2291 29.7556 41.2291H34.0126C34.6003 41.2291 35.0768 40.7526 35.0768 40.1649V35.9083C35.0768 35.3208 34.6003 34.8441 34.0126 34.8441ZM32.9484 39.1007H30.8198V36.9725H32.9484V39.1007Z" fill="#E3010F"/>
<path d="M41.4619 35.9083V40.1649C41.4619 40.7526 41.9386 41.2291 42.5261 41.2291H46.7831C47.3709 41.2291 47.8473 40.7526 47.8473 40.1649V35.9083C47.8473 35.3207 47.3709 34.8441 46.7831 34.8441H42.5261C41.9386 34.8441 41.4619 35.3208 41.4619 35.9083ZM43.5903 36.9725H45.7189V39.1007H43.5903V36.9725Z" fill="#E3010F"/>
<path d="M36.7465 47.6147H36.7214C36.1339 47.6147 35.6572 48.0912 35.6572 48.6789C35.6572 49.2666 36.1339 49.7431 36.7214 49.7431H36.7465C37.3343 49.7431 37.8107 49.2666 37.8107 48.6789C37.8107 48.0912 37.3343 47.6147 36.7465 47.6147Z" fill="#E3010F"/>
<path d="M33.6639 47.6147H29.7556C29.1678 47.6147 28.6914 48.0912 28.6914 48.6789C28.6914 49.2666 29.1678 49.7431 29.7556 49.7431H33.6639C34.2514 49.7431 34.7281 49.2666 34.7281 48.6789C34.7281 48.0912 34.2514 47.6147 33.6639 47.6147Z" fill="#E3010F"/>
</svg>
