<svg width="42" height="45" viewBox="0 0 42 45" fill="none" xmlns="http://www.w3.org/2000/svg">
<path d="M35.2856 31.0014C35.1111 30.9423 34.9267 30.9184 34.7429 30.931C34.5591 30.9436 34.3796 30.9925 34.2148 31.0749C34.05 31.1573 33.9032 31.2716 33.7829 31.411C33.6625 31.5505 33.571 31.7125 33.5136 31.8875C33.4562 32.0626 33.4341 32.2473 33.4485 32.4309C33.4629 32.6146 33.5136 32.7936 33.5976 32.9575C33.6817 33.1215 33.7973 33.2672 33.938 33.3861C34.0787 33.5051 34.2415 33.595 34.4171 33.6507C37.6061 34.6962 39.0335 35.9446 39.0335 36.7165C39.0335 38.6592 31.8052 41.5957 20.9108 41.5957C10.0164 41.5957 2.78811 38.6592 2.78811 36.7165C2.78811 35.9446 4.21552 34.6962 7.40454 33.6507C7.58016 33.595 7.743 33.5051 7.88366 33.3861C8.02431 33.2672 8.13999 33.1215 8.22401 32.9575C8.30802 32.7936 8.3587 32.6146 8.37313 32.4309C8.38755 32.2473 8.36543 32.0626 8.30804 31.8875C8.25065 31.7125 8.15913 31.5505 8.03878 31.411C7.91842 31.2716 7.77161 31.1573 7.60684 31.0749C7.44206 30.9925 7.26259 30.9436 7.0788 30.931C6.895 30.9184 6.71053 30.9423 6.53605 31.0014C1.13403 32.7726 0 35.0869 0 36.7165C0 41.7495 10.5194 44.3838 20.9108 44.3838C31.3022 44.3838 41.8216 41.7495 41.8216 36.7165C41.8216 35.0869 40.6876 32.7726 35.2856 31.0014Z" fill="#E3010F"/>
<path d="M20.4723 38.7945C20.7195 38.9919 21.0265 39.0994 21.3429 39.0994C21.6593 39.0994 21.9663 38.9919 22.2135 38.7945C22.7233 38.386 34.6858 28.6726 34.6858 16.1969C34.6858 12.6581 33.28 9.26432 30.7777 6.76205C28.2755 4.25977 24.8816 2.854 21.3429 2.854C17.8041 2.854 14.4103 4.25977 11.908 6.76205C9.40576 9.26432 8 12.6581 8 16.1969C8.00003 28.6726 19.9625 38.3861 20.4723 38.7945ZM16.5633 16.1969C16.5633 15.2516 16.8437 14.3275 17.3689 13.5415C17.8941 12.7556 18.6406 12.143 19.514 11.7812C20.3874 11.4195 21.3484 11.3249 22.2755 11.5093C23.2027 11.6938 24.0543 12.149 24.7227 12.8175C25.3911 13.4859 25.8463 14.3376 26.0307 15.2647C26.2151 16.1919 26.1205 17.1529 25.7587 18.0263C25.3969 18.8996 24.7843 19.6461 23.9983 20.1713C23.2123 20.6964 22.2882 20.9768 21.3429 20.9768C20.0753 20.9767 18.8595 20.4731 17.9632 19.5767C17.0668 18.6803 16.5633 17.4646 16.5633 16.1969V16.1969Z" fill="#E3010F"/>
</svg>
